# File created by Blade
# Date/Time:  Mon Sep 22 17:23:16 2014
# Frame Rate: 120.000 fps
#------------------------------------------------------
:FULLY-SPECIFIED
:DEGREES
3112
root 1.358291 39.059182 -0.164704 6.189940 -17.083426 -32.476752
RightUpLeg -29.077914 -35.130783 -17.243922
RightLeg 122.591167 -0.000000 -0.000000
RightFoot 3.192964 -10.719312 17.484518
RightToeBase 1.791554 -0.000000 -0.000000
LeftUpLeg 5.787195 7.239016 24.702433
LeftLeg 10.678155 -0.000000 -0.000000
LeftFoot -19.459509 19.839906 -17.828893
LeftToeBase 2.256205 -0.000000 -0.000000
Spine 15.989668 -12.137282 -2.965301
RightShoulder -2.323362 -31.481530 -5.918232
RightArm 19.913099 -17.836975 60.445273
RightForeArm -184.061752 -0.000000 107.365109
RightHand 95.354378 -0.000000 -165.984379
RightHandThumb1 -24.326973 -0.000000 -32.862282
LeftShoulder -18.489164 30.682751 10.202802
LeftArm 61.898849 -27.223711 -64.396834
LeftForeArm 65.402925 0.000000 131.118987
LeftHand -25.707448 -0.000000 -23.645625
LeftHandThumb1 -26.253704 0.000000 33.147579
Head 4.581162 25.322035 30.530669
3113
root 1.361410 39.059187 -0.164122 5.648994 -17.380332 -32.201295
RightUpLeg -29.829583 -36.276279 -16.828487
RightLeg 123.535132 -0.000000 -0.000000
RightFoot 4.141989 -9.603074 17.924090
RightToeBase 1.561216 -0.000000 -0.000000
LeftUpLeg 6.479497 7.431689 24.503154
LeftLeg 10.402484 -0.000000 -0.000000
LeftFoot -19.310175 19.675857 -17.930713
LeftToeBase 2.752553 -0.000000 -0.000000
Spine 16.746415 -12.203503 -3.694236
RightShoulder -2.290294 -31.401625 -5.864276
RightArm 19.823864 -17.835313 60.529647
RightForeArm -184.110893 0.000000 107.331922
RightHand 95.332316 -0.000000 -165.969959
RightHandThumb1 -24.326973 -0.000000 -32.862282
LeftShoulder -18.573600 30.629923 10.315718
LeftArm 61.763045 -27.636111 -64.482753
LeftForeArm 65.282839 -0.000000 131.319930
LeftHand -25.724777 -0.000000 -23.552348
LeftHandThumb1 -26.253704 0.000000 33.147579
Head 4.368512 25.596477 30.627958
3114
root 1.365680 39.055239 -0.164312 5.064799 -17.653211 -31.852953
RightUpLeg -30.588130 -37.464825 -16.464199
RightLeg 124.511775 -0.000000 -0.000000
RightFoot 5.137946 -8.553713 18.427411
RightToeBase 1.452764 -0.000000 -0.000000
LeftUpLeg 7.225892 7.425750 24.210011
LeftLeg 10.025210 -0.000000 -0.000000
LeftFoot -19.199992 19.623464 -18.136057
LeftToeBase 3.065650 -0.000000 -0.000000
Spine 17.536791 -12.235418 -4.509191
RightShoulder -2.307870 -31.380029 -5.799965
RightArm 19.769308 -17.761920 60.687994
RightForeArm -184.121466 -0.000000 107.301167
RightHand 95.315298 -0.000000 -165.979788
RightHandThumb1 -24.326973 -0.000000 -32.862282
LeftShoulder -18.589866 30.487358 10.503945
LeftArm 61.520902 -28.096771 -64.550103
LeftForeArm 65.215999 -0.000000 131.534491
LeftHand -25.626200 -0.000000 -23.708004
LeftHandThumb1 -26.253704 0.000000 33.147579
Head 4.127544 25.943665 30.814601
3115
root 1.371646 39.052618 -0.147407 4.369938 -17.631600 -31.594873
RightUpLeg -30.968794 -38.944148 -16.183018
RightLeg 125.377547 -0.000000 -0.000000
RightFoot 6.195601 -7.672499 19.029265
RightToeBase 1.597222 -0.000000 -0.000000
LeftUpLeg 7.961661 7.134222 24.029614
LeftLeg 9.693382 -0.000000 -0.000000
LeftFoot -19.173570 19.520310 -18.354031
LeftToeBase 3.385754 -0.000000 -0.000000
Spine 18.498460 -12.557161 -5.184354
RightShoulder -2.328319 -31.388467 -5.786924
RightArm 19.746056 -17.633085 60.809666
RightForeArm -184.067666 -0.000000 107.269779
RightHand 95.365472 0.000000 -165.916858
RightHandThumb1 -24.326973 -0.000000 -32.862282
LeftShoulder -18.650726 30.456850 10.557080
LeftArm 61.471939 -28.572898 -64.728424
LeftForeArm 65.203812 0.000000 131.741348
LeftHand -25.601121 -0.000000 -23.766977
LeftHandThumb1 -26.253704 0.000000 33.147579
Head 3.850259 26.193873 30.856656
3116
root 1.370250 39.048196 -0.142056 3.735457 -17.804312 -31.234622
RightUpLeg -31.693607 -40.271641 -15.754211
RightLeg 126.275839 -0.000000 -0.000000
RightFoot 7.254936 -7.167265 19.848911
RightToeBase 1.849784 -0.000000 -0.000000
LeftUpLeg 8.735850 6.965991 23.722842
LeftLeg 9.267623 -0.000000 -0.000000
LeftFoot -19.103385 19.535366 -18.604026
LeftToeBase 3.778545 -0.000000 -0.000000
Spine 19.330035 -12.620671 -6.033003
RightShoulder -2.381170 -31.305985 -5.716237
RightArm 19.584892 -17.575174 61.060625
RightForeArm -184.214717 -0.000000 107.248269
RightHand 95.327632 0.000000 -165.926799
RightHandThumb1 -24.326973 -0.000000 -32.862282
LeftShoulder -18.670949 30.350722 10.732921
LeftArm 61.344391 -29.048716 -64.849483
LeftForeArm 65.134903 -0.000000 131.924508
LeftHand -25.647024 -0.000000 -23.703727
LeftHandThumb1 -26.253704 0.000000 33.147579
Head 3.599957 26.507609 31.079822
3117
root 1.370492 39.043256 -0.138769 3.095069 -17.966751 -30.883382
RightUpLeg -32.476393 -41.588351 -15.227097
RightLeg 127.125720 -0.000000 -0.000000
RightFoot 8.378911 -6.919664 20.542772
RightToeBase 1.921504 -0.000000 -0.000000
LeftUpLeg 9.509807 6.798238 23.426125
LeftLeg 8.847313 -0.000000 -0.000000
LeftFoot -19.028634 19.535835 -18.851556
LeftToeBase 4.124514 -0.000000 -0.000000
Spine 20.178381 -12.659714 -6.861530
RightShoulder -2.426699 -31.286304 -5.675211
RightArm 19.449114 -17.453968 61.335749
RightForeArm -184.221027 0.000000 107.236670
RightHand 95.329950 -0.000000 -165.809078
RightHandThumb1 -24.326973 -0.000000 -32.862282
LeftShoulder -18.739706 30.236478 10.852078
LeftArm 61.325199 -29.496980 -65.003894
LeftForeArm 65.074244 -0.000000 132.064475
LeftHand -25.683314 -0.000000 -23.726373
LeftHandThumb1 -26.253704 0.000000 33.147579
Head 3.337504 26.756078 31.256221
3118
root 1.373359 39.034015 -0.132964 2.467442 -18.129191 -30.496787
RightUpLeg -33.319250 -42.867214 -14.686501
RightLeg 127.939054 -0.000000 -0.000000
RightFoot 9.525181 -6.779246 21.420422
RightToeBase 2.046351 -0.000000 -0.000000
LeftUpLeg 10.313395 6.607436 23.086236
LeftLeg 8.328694 -0.000000 -0.000000
LeftFoot -18.935208 19.532734 -19.117263
LeftToeBase 4.487993 -0.000000 -0.000000
Spine 20.954317 -12.630230 -7.699927
RightShoulder -2.479570 -31.272335 -5.605915
RightArm 19.216794 -17.276431 61.637123
RightForeArm -184.188988 0.000000 107.255840
RightHand 95.364635 -0.000000 -165.777641
RightHandThumb1 -24.326973 -0.000000 -32.862282
LeftShoulder -18.729978 30.170982 11.031550
LeftArm 61.324536 -29.923297 -65.201634
LeftForeArm 65.050506 -0.000000 132.209037
LeftHand -25.759249 -0.000000 -23.714859
LeftHandThumb1 -26.253704 0.000000 33.147579
Head 3.098301 26.817880 31.373548
3119
root 1.367684 39.030900 -0.138686 1.916216 -18.271272 -30.231466
RightUpLeg -34.311045 -44.109762 -13.826761
RightLeg 128.669832 -0.000000 -0.000000
RightFoot 10.669700 -6.866957 22.297200
RightToeBase 2.070997 -0.000000 -0.000000
LeftUpLeg 10.971460 6.538399 22.898838
LeftLeg 7.998131 -0.000000 -0.000000
LeftFoot -18.841320 19.481419 -19.238818
LeftToeBase 4.842419 -0.000000 -0.000000
Spine 21.703602 -12.611708 -8.420517
RightShoulder -2.556040 -31.328760 -5.516033
RightArm 19.096380 -17.053317 61.879875
RightForeArm -184.046424 -0.000000 107.266166
RightHand 95.341672 -0.000000 -165.696606
RightHandThumb1 -24.326973 -0.000000 -32.862282
LeftShoulder -18.761342 30.037259 11.203096
LeftArm 61.325186 -30.306252 -65.433143
LeftForeArm 65.013898 0.000000 132.357058
LeftHand -25.680963 -0.000000 -23.771777
LeftHandThumb1 -26.253704 0.000000 33.147579
Head 2.847752 26.930346 31.509138
